<svg xmlns="http://www.w3.org/2000/svg" viewBox="0 0 26 26" id="Lock"><path d="M13 0A13 13 0 0 0 0 13a13 13 0 0 0 13 13 13 13 0 0 0 13-13A13 13 0 0 0 13 0zm-.027 6.643v.002h.054a2.98 2.98 0 0 1 2.975 2.974v1.453H15V9.62a1.96 1.96 0 0 0-1.973-1.974h-.054A1.96 1.96 0 0 0 11 9.619v1.45h-1V9.614a2.977 2.977 0 0 1 2.973-2.972zM13 11.355a3.964 3.964 0 0 1 .951.125c.148.036.291.081.432.133.089.033.179.065.265.104.161.073.315.158.463.25.037.022.076.04.112.064.01.007.019.008.029.018A3.989 3.989 0 0 1 17 15.355c0 2.216-1.785 4-4 4s-4-1.784-4-4a3.99 3.99 0 0 1 1.738-3.298c.014-.007.028-.014.041-.024.055-.037.114-.063.17-.097.128-.077.256-.153.393-.215.093-.044.19-.077.287-.112.134-.049.271-.09.412-.125.083-.02.166-.043.25-.058.23-.041.466-.07.709-.07zm0 2c-.822 0-1.5.678-1.5 1.5 0 .412.169.79.44 1.061.155.156.348.273.56.348v2.091h1v-2.091c.213-.076.407-.192.563-.348A1.5 1.5 0 0 0 13 13.356zm0 1c.286 0 .5.215.5.5a.495.495 0 0 1-.5.5.495.495 0 0 1-.5-.5c0-.285.214-.5.5-.5z" fill="#000000" class="color000000 svgShape"></path></svg>