<svg xmlns="http://www.w3.org/2000/svg" fill-rule="evenodd" stroke-linejoin="round" stroke-miterlimit="2" clip-rule="evenodd" viewBox="0 0 64 64" id="Menu"><g fill="#000000" class="color000000 svgShape"><rect width="64" height="64" fill="none"></rect><circle cx="32" cy="32" r="26" fill="#000000" class="color3fc1c9 svgShape"></circle><path fill="#ffffff" d="M180,754L204,754C205.104,754 206,753.104 206,752C206,750.896 205.104,750 204,750L180,750C178.896,750 178,750.896 178,752C178,753.104 178.896,754 180,754Z" transform="translate(-160 -720)" class="coloreaeaea svgShape"></path><path fill="#ffffff" d="M180,754L204,754C205.104,754 206,753.104 206,752C206,750.896 205.104,750 204,750L180,750C178.896,750 178,750.896 178,752C178,753.104 178.896,754 180,754Z" transform="translate(-160 -730)" class="coloreaeaea svgShape"></path><path fill="#ffffff" d="M180,754L204,754C205.104,754 206,753.104 206,752C206,750.896 205.104,750 204,750L180,750C178.896,750 178,750.896 178,752C178,753.104 178.896,754 180,754Z" transform="translate(-160 -710)" class="coloreaeaea svgShape"></path></g></svg>