<svg xmlns="http://www.w3.org/2000/svg" xmlns:xlink="http://www.w3.org/1999/xlink" width="64" height="64" viewBox="0 0 64 64" id="phone"><defs><path id="a" d="M.06 64V.04H64V64z"></path></defs><g fill="none" fill-rule="evenodd"><g><mask id="b" fill="#fff"><use xlink:href="#a"></use></mask><path fill="#FFFFFE" d="M41.107 35.619a1.066 1.066 0 0 0-.964.229c-1.556 1.329-3.705 2.745-4.632 2.891-6.217-3.039-9.689-8.872-9.82-9.978-.076-.622 1.349-2.806 2.988-4.582.207-.225.312-.531.283-.836-.417-4.794-5.418-7.146-5.629-7.242a1.063 1.063 0 0 0-.635-.085c-5.774.958-6.643 4.318-6.677 4.458-.048.196-.04.399.021.589 6.887 21.366 21.199 25.327 25.903 26.629.363.101.661.181.888.256a1.087 1.087 0 0 0 .788-.046c.144-.066 3.544-1.667 4.375-6.891.037-.227 0-.463-.105-.668-.074-.144-1.852-3.528-6.784-4.724" mask="url(#b)"></path><path fill="#000" d="M47.996 41.011c-.831 5.224-4.231 6.825-4.375 6.891a1.087 1.087 0 0 1-.788.046c-.227-.075-.525-.155-.888-.256-4.704-1.302-19.016-5.263-25.903-26.629a1.081 1.081 0 0 1-.021-.589c.034-.14.903-3.5 6.677-4.458.214-.037.436-.009.635.085.211.096 5.212 2.448 5.629 7.242.029.305-.076.611-.283.836-1.639 1.776-3.064 3.96-2.988 4.582.131 1.106 3.603 6.939 9.82 9.978.927-.146 3.076-1.562 4.632-2.891.266-.227.62-.318.964-.229 4.932 1.196 6.71 4.58 6.784 4.724.105.205.142.441.105.668zM32 0C14.327 0 0 14.327 0 32c0 17.673 14.327 32 32 32 17.673 0 32-14.327 32-32C64 14.327 49.673 0 32 0z" mask="url(#b)"></path></g></g></svg>