<svg xmlns="http://www.w3.org/2000/svg" viewBox="0 0 28 28" id="search"><path fill="#0c0c0c" d="M28 13.987C28 21.728 21.728 28 14.013 28 6.272 28 0 21.728 0 13.987 0 6.272 6.272 0 14.013 0 21.728 0 28 6.272 28 13.987z"></path><path fill="#fff" d="M16.074 16.926c-2.757 0-5-2.243-5-5s2.243-5 5-5 5 2.243 5 5-2.243 5-5 5zm0-9c-2.206 0-4 1.794-4 4s1.794 4 4 4 4-1.794 4-4-1.795-4-4-4z"></path><path fill="#fff" d="M7.426 21.074a.5.5 0 0 1-.354-.853l5.465-5.465a.5.5 0 0 1 .707.707L7.78 20.927a.5.5 0 0 1-.354.147z"></path></svg>